<svg width="194" height="40" viewBox="0 0 194 40" fill="none" xmlns="http://www.w3.org/2000/svg">
<g filter="url(#filter0_d_203_12)">
<mask id="path-1-outside-1_203_12" maskUnits="userSpaceOnUse" x="1" y="7" width="153" height="23" fill="black">
<rect fill="white" x="1" y="7" width="153" height="23"/>
<path d="M3.00781 28C2.55208 28 2.32422 27.7493 2.32422 27.248V9.14648C2.32422 8.64518 2.55208 8.39453 3.00781 8.39453H4.26562C4.72135 8.39453 4.94922 8.64518 4.94922 9.14648V25.7578H14.0137C14.515 25.7578 14.7656 25.9629 14.7656 26.373V27.3848C14.7656 27.7949 14.515 28 14.0137 28H3.00781ZM19.0797 28C18.7542 28 18.5914 27.821 18.5914 27.4629V14.5332C18.5914 14.1751 18.7542 13.9961 19.0797 13.9961H27.6246C27.9827 13.9961 28.1617 14.1426 28.1617 14.4355V15.1582C28.1617 15.4512 27.9827 15.5977 27.6246 15.5977H20.4664V19.9336H27.0387C27.3967 19.9336 27.5758 20.0801 27.5758 20.373V21.0957C27.5758 21.3887 27.3967 21.5352 27.0387 21.5352H20.4664V26.3984H27.9176C28.2757 26.3984 28.4547 26.5449 28.4547 26.8379V27.5605C28.4547 27.8535 28.2757 28 27.9176 28H19.0797ZM31.232 20.998C31.232 18.7194 31.7952 16.9355 32.9215 15.6465C34.0543 14.3509 35.6786 13.7031 37.7945 13.7031C39.0315 13.7031 40.0536 13.9147 40.8609 14.3379C41.6682 14.7546 42.2477 15.3275 42.5992 16.0566C42.7815 16.4342 42.7522 16.6947 42.5113 16.8379L41.7398 17.2871C41.4794 17.4368 41.2483 17.3132 41.0465 16.916C40.8316 16.5059 40.4801 16.1217 39.9918 15.7637C39.5035 15.4056 38.8036 15.2266 37.8922 15.2266C36.2646 15.2266 35.0797 15.7344 34.3375 16.75C33.6018 17.7591 33.234 19.1751 33.234 20.998C33.234 22.821 33.6018 24.2402 34.3375 25.2559C35.0797 26.265 36.2646 26.7695 37.8922 26.7695C38.8297 26.7695 39.5784 26.5547 40.1383 26.125C40.7047 25.6953 41.1148 25.2461 41.3687 24.7773C41.5706 24.3997 41.8049 24.2858 42.0719 24.4355L42.8824 24.8945C43.1168 25.0312 43.1363 25.2917 42.941 25.6758C42.5569 26.4245 41.9319 27.0495 41.066 27.5508C40.2001 28.0456 39.1096 28.293 37.7945 28.293C35.6786 28.293 34.0543 27.6484 32.9215 26.3594C31.7952 25.0638 31.232 23.2767 31.232 20.998ZM47.1734 28C46.8479 28 46.6852 27.821 46.6852 27.4629V14.5332C46.6852 14.1751 46.8479 13.9961 47.1734 13.9961H48.0719C48.3974 13.9961 48.5602 14.1751 48.5602 14.5332V19.9141H55.3766V14.5332C55.3766 14.1751 55.5393 13.9961 55.8648 13.9961H56.7633C57.0888 13.9961 57.2516 14.1751 57.2516 14.5332V27.4629C57.2516 27.821 57.0888 28 56.7633 28H55.8648C55.5393 28 55.3766 27.821 55.3766 27.4629V21.5156H48.5602V27.4629C48.5602 27.821 48.3974 28 48.0719 28H47.1734ZM72.5328 26.9453C72.1878 26.6328 72.0966 26.3594 72.2594 26.125L72.7672 25.3926C72.943 25.1387 73.2262 25.1582 73.6168 25.4512C74.1311 25.8353 74.665 26.151 75.2184 26.3984C75.7783 26.6458 76.4553 26.7695 77.2496 26.7695C77.8355 26.7695 78.3303 26.6816 78.734 26.5059C79.1376 26.3301 79.4599 26.0794 79.7008 25.7539C79.9482 25.4219 80.0719 25.0215 80.0719 24.5527C80.0719 24.2142 80.0198 23.9017 79.9156 23.6152C79.818 23.3223 79.6585 23.0781 79.4371 22.8828C79.2158 22.6875 78.9846 22.5345 78.7438 22.4238C78.3466 22.2415 77.7509 22.0299 76.9566 21.7891C76.1689 21.5482 75.4788 21.2878 74.8863 21.0078C74.3004 20.7279 73.8316 20.3893 73.4801 19.9922C73.135 19.5951 72.9039 19.1882 72.7867 18.7715C72.676 18.3483 72.6207 17.8665 72.6207 17.3262C72.6207 16.4993 72.8616 15.7865 73.3434 15.1875C73.8251 14.5885 74.4143 14.1914 75.1109 13.9961C75.8141 13.8008 76.527 13.7031 77.2496 13.7031C78.0764 13.7031 78.7958 13.8105 79.4078 14.0254C80.0198 14.2402 80.5667 14.5202 81.0484 14.8652C81.387 15.1061 81.4651 15.36 81.2828 15.627L80.7848 16.3398C80.635 16.5547 80.3421 16.5091 79.9059 16.2031C79.5738 15.9688 79.1669 15.7507 78.6852 15.5488C78.2099 15.3405 77.7379 15.2363 77.2691 15.2363C76.6702 15.2363 76.1721 15.3079 75.775 15.4512C75.3779 15.5879 75.0654 15.8223 74.8375 16.1543C74.6096 16.4863 74.4957 16.8704 74.4957 17.3066C74.4957 17.5801 74.5217 17.834 74.5738 18.0684C74.6259 18.2962 74.7594 18.5306 74.9742 18.7715C75.1891 19.0124 75.4495 19.1979 75.7555 19.3281C76.1656 19.5039 76.8004 19.7122 77.6598 19.9531C78.5257 20.1875 79.2809 20.4772 79.9254 20.8223C80.5244 21.1413 80.954 21.4766 81.2145 21.8281C81.4814 22.1732 81.6865 22.5508 81.8297 22.9609C81.9794 23.3646 82.0543 23.8203 82.0543 24.3281C82.0543 25.2526 81.8167 26.0241 81.3414 26.6426C80.8661 27.2611 80.303 27.6908 79.652 27.9316C79.0009 28.1725 78.1839 28.293 77.2008 28.293C76.0224 28.293 75.0458 28.1562 74.2711 27.8828C73.4964 27.6094 72.9169 27.2969 72.5328 26.9453ZM84.8121 14.6406C84.5322 14.2109 84.6201 13.9961 85.0758 13.9961H86.1695C86.456 13.9961 86.6904 14.1556 86.8727 14.4746L89.3531 18.7422C89.6266 19.2109 89.8609 19.6211 90.0563 19.9727C90.2516 20.3177 90.4404 20.6855 90.6227 21.0762H90.6617C90.844 20.6855 91.0328 20.3177 91.2281 19.9727C91.4234 19.6211 91.6578 19.2109 91.9313 18.7422L94.4117 14.4746C94.594 14.1556 94.8284 13.9961 95.1148 13.9961H96.2086C96.6643 13.9961 96.7522 14.2109 96.4723 14.6406L91.5797 22.2383V27.4629C91.5797 27.821 91.4169 28 91.0914 28H90.193C89.8674 28 89.7047 27.821 89.7047 27.4629V22.2383L84.8121 14.6406ZM99.2008 26.9453C98.8557 26.6328 98.7646 26.3594 98.9273 26.125L99.4352 25.3926C99.6109 25.1387 99.8941 25.1582 100.285 25.4512C100.799 25.8353 101.333 26.151 101.886 26.3984C102.446 26.6458 103.123 26.7695 103.918 26.7695C104.504 26.7695 104.998 26.6816 105.402 26.5059C105.806 26.3301 106.128 26.0794 106.369 25.7539C106.616 25.4219 106.74 25.0215 106.74 24.5527C106.74 24.2142 106.688 23.9017 106.584 23.6152C106.486 23.3223 106.326 23.0781 106.105 22.8828C105.884 22.6875 105.653 22.5345 105.412 22.4238C105.015 22.2415 104.419 22.0299 103.625 21.7891C102.837 21.5482 102.147 21.2878 101.554 21.0078C100.968 20.7279 100.5 20.3893 100.148 19.9922C99.803 19.5951 99.5719 19.1882 99.4547 18.7715C99.344 18.3483 99.2887 17.8665 99.2887 17.3262C99.2887 16.4993 99.5296 15.7865 100.011 15.1875C100.493 14.5885 101.082 14.1914 101.779 13.9961C102.482 13.8008 103.195 13.7031 103.918 13.7031C104.744 13.7031 105.464 13.8105 106.076 14.0254C106.688 14.2402 107.235 14.5202 107.716 14.8652C108.055 15.1061 108.133 15.36 107.951 15.627L107.453 16.3398C107.303 16.5547 107.01 16.5091 106.574 16.2031C106.242 15.9688 105.835 15.7507 105.353 15.5488C104.878 15.3405 104.406 15.2363 103.937 15.2363C103.338 15.2363 102.84 15.3079 102.443 15.4512C102.046 15.5879 101.733 15.8223 101.505 16.1543C101.278 16.4863 101.164 16.8704 101.164 17.3066C101.164 17.5801 101.19 17.834 101.242 18.0684C101.294 18.2962 101.427 18.5306 101.642 18.7715C101.857 19.0124 102.117 19.1979 102.423 19.3281C102.834 19.5039 103.468 19.7122 104.328 19.9531C105.194 20.1875 105.949 20.4772 106.593 20.8223C107.192 21.1413 107.622 21.4766 107.882 21.8281C108.149 22.1732 108.354 22.5508 108.498 22.9609C108.647 23.3646 108.722 23.8203 108.722 24.3281C108.722 25.2526 108.485 26.0241 108.009 26.6426C107.534 27.2611 106.971 27.6908 106.32 27.9316C105.669 28.1725 104.852 28.293 103.869 28.293C102.69 28.293 101.714 28.1562 100.939 27.8828C100.164 27.6094 99.5849 27.2969 99.2008 26.9453ZM111.421 15.6758C111.063 15.6758 110.884 15.5293 110.884 15.2363V14.4355C110.884 14.1426 111.063 13.9961 111.421 13.9961H121.754C122.112 13.9961 122.291 14.1426 122.291 14.4355V15.2363C122.291 15.5293 122.112 15.6758 121.754 15.6758H117.525V27.4629C117.525 27.821 117.362 28 117.037 28H116.138C115.813 28 115.65 27.821 115.65 27.4629V15.6758H111.421ZM125.791 28C125.465 28 125.302 27.821 125.302 27.4629V14.5332C125.302 14.1751 125.465 13.9961 125.791 13.9961H134.336C134.694 13.9961 134.873 14.1426 134.873 14.4355V15.1582C134.873 15.4512 134.694 15.5977 134.336 15.5977H127.177V19.9336H133.75C134.108 19.9336 134.287 20.0801 134.287 20.373V21.0957C134.287 21.3887 134.108 21.5352 133.75 21.5352H127.177V26.3984H134.629C134.987 26.3984 135.166 26.5449 135.166 26.8379V27.5605C135.166 27.8535 134.987 28 134.629 28H125.791ZM139.193 28C138.867 28 138.705 27.821 138.705 27.4629V14.5332C138.705 14.1751 138.867 13.9961 139.193 13.9961H141.273C141.52 13.9961 141.706 14.1914 141.83 14.582L144.623 23.3418C144.909 24.2402 145.078 24.7839 145.13 24.9727C145.183 25.1549 145.257 25.4935 145.355 25.9883H145.414C145.511 25.4935 145.586 25.1549 145.638 24.9727C145.69 24.7839 145.86 24.2402 146.146 23.3418L148.939 14.582C149.063 14.1914 149.248 13.9961 149.496 13.9961H151.576C151.901 13.9961 152.064 14.1751 152.064 14.5332V27.4629C152.064 27.821 151.901 28 151.576 28H150.677C150.352 28 150.189 27.821 150.189 27.4629V17.2188C150.189 16.9583 150.196 16.6979 150.209 16.4375H150.17L146.566 27.4043C146.436 27.8014 146.221 28 145.921 28H144.847C144.548 28 144.333 27.8014 144.203 27.4043L140.599 16.4375H140.56C140.573 16.6979 140.58 16.9583 140.58 17.2188V27.4629C140.58 27.821 140.417 28 140.091 28H139.193Z"/>
<path d="M60.7027 23.2344C60.4098 23.2344 60.2633 23.1204 60.2633 22.8926V22.3066C60.2633 22.0788 60.4098 21.9648 60.7027 21.9648H69.1207C69.4137 21.9648 69.5602 22.0788 69.5602 22.3066V22.8926C69.5602 23.1204 69.4137 23.2344 69.1207 23.2344H60.7027Z"/>
</mask>
<path d="M3.00781 28C2.55208 28 2.32422 27.7493 2.32422 27.248V9.14648C2.32422 8.64518 2.55208 8.39453 3.00781 8.39453H4.26562C4.72135 8.39453 4.94922 8.64518 4.94922 9.14648V25.7578H14.0137C14.515 25.7578 14.7656 25.9629 14.7656 26.373V27.3848C14.7656 27.7949 14.515 28 14.0137 28H3.00781ZM19.0797 28C18.7542 28 18.5914 27.821 18.5914 27.4629V14.5332C18.5914 14.1751 18.7542 13.9961 19.0797 13.9961H27.6246C27.9827 13.9961 28.1617 14.1426 28.1617 14.4355V15.1582C28.1617 15.4512 27.9827 15.5977 27.6246 15.5977H20.4664V19.9336H27.0387C27.3967 19.9336 27.5758 20.0801 27.5758 20.373V21.0957C27.5758 21.3887 27.3967 21.5352 27.0387 21.5352H20.4664V26.3984H27.9176C28.2757 26.3984 28.4547 26.5449 28.4547 26.8379V27.5605C28.4547 27.8535 28.2757 28 27.9176 28H19.0797ZM31.232 20.998C31.232 18.7194 31.7952 16.9355 32.9215 15.6465C34.0543 14.3509 35.6786 13.7031 37.7945 13.7031C39.0315 13.7031 40.0536 13.9147 40.8609 14.3379C41.6682 14.7546 42.2477 15.3275 42.5992 16.0566C42.7815 16.4342 42.7522 16.6947 42.5113 16.8379L41.7398 17.2871C41.4794 17.4368 41.2483 17.3132 41.0465 16.916C40.8316 16.5059 40.4801 16.1217 39.9918 15.7637C39.5035 15.4056 38.8036 15.2266 37.8922 15.2266C36.2646 15.2266 35.0797 15.7344 34.3375 16.75C33.6018 17.7591 33.234 19.1751 33.234 20.998C33.234 22.821 33.6018 24.2402 34.3375 25.2559C35.0797 26.265 36.2646 26.7695 37.8922 26.7695C38.8297 26.7695 39.5784 26.5547 40.1383 26.125C40.7047 25.6953 41.1148 25.2461 41.3687 24.7773C41.5706 24.3997 41.8049 24.2858 42.0719 24.4355L42.8824 24.8945C43.1168 25.0312 43.1363 25.2917 42.941 25.6758C42.5569 26.4245 41.9319 27.0495 41.066 27.5508C40.2001 28.0456 39.1096 28.293 37.7945 28.293C35.6786 28.293 34.0543 27.6484 32.9215 26.3594C31.7952 25.0638 31.232 23.2767 31.232 20.998ZM47.1734 28C46.8479 28 46.6852 27.821 46.6852 27.4629V14.5332C46.6852 14.1751 46.8479 13.9961 47.1734 13.9961H48.0719C48.3974 13.9961 48.5602 14.1751 48.5602 14.5332V19.9141H55.3766V14.5332C55.3766 14.1751 55.5393 13.9961 55.8648 13.9961H56.7633C57.0888 13.9961 57.2516 14.1751 57.2516 14.5332V27.4629C57.2516 27.821 57.0888 28 56.7633 28H55.8648C55.5393 28 55.3766 27.821 55.3766 27.4629V21.5156H48.5602V27.4629C48.5602 27.821 48.3974 28 48.0719 28H47.1734ZM72.5328 26.9453C72.1878 26.6328 72.0966 26.3594 72.2594 26.125L72.7672 25.3926C72.943 25.1387 73.2262 25.1582 73.6168 25.4512C74.1311 25.8353 74.665 26.151 75.2184 26.3984C75.7783 26.6458 76.4553 26.7695 77.2496 26.7695C77.8355 26.7695 78.3303 26.6816 78.734 26.5059C79.1376 26.3301 79.4599 26.0794 79.7008 25.7539C79.9482 25.4219 80.0719 25.0215 80.0719 24.5527C80.0719 24.2142 80.0198 23.9017 79.9156 23.6152C79.818 23.3223 79.6585 23.0781 79.4371 22.8828C79.2158 22.6875 78.9846 22.5345 78.7438 22.4238C78.3466 22.2415 77.7509 22.0299 76.9566 21.7891C76.1689 21.5482 75.4788 21.2878 74.8863 21.0078C74.3004 20.7279 73.8316 20.3893 73.4801 19.9922C73.135 19.5951 72.9039 19.1882 72.7867 18.7715C72.676 18.3483 72.6207 17.8665 72.6207 17.3262C72.6207 16.4993 72.8616 15.7865 73.3434 15.1875C73.8251 14.5885 74.4143 14.1914 75.1109 13.9961C75.8141 13.8008 76.527 13.7031 77.2496 13.7031C78.0764 13.7031 78.7958 13.8105 79.4078 14.0254C80.0198 14.2402 80.5667 14.5202 81.0484 14.8652C81.387 15.1061 81.4651 15.36 81.2828 15.627L80.7848 16.3398C80.635 16.5547 80.3421 16.5091 79.9059 16.2031C79.5738 15.9688 79.1669 15.7507 78.6852 15.5488C78.2099 15.3405 77.7379 15.2363 77.2691 15.2363C76.6702 15.2363 76.1721 15.3079 75.775 15.4512C75.3779 15.5879 75.0654 15.8223 74.8375 16.1543C74.6096 16.4863 74.4957 16.8704 74.4957 17.3066C74.4957 17.5801 74.5217 17.834 74.5738 18.0684C74.6259 18.2962 74.7594 18.5306 74.9742 18.7715C75.1891 19.0124 75.4495 19.1979 75.7555 19.3281C76.1656 19.5039 76.8004 19.7122 77.6598 19.9531C78.5257 20.1875 79.2809 20.4772 79.9254 20.8223C80.5244 21.1413 80.954 21.4766 81.2145 21.8281C81.4814 22.1732 81.6865 22.5508 81.8297 22.9609C81.9794 23.3646 82.0543 23.8203 82.0543 24.3281C82.0543 25.2526 81.8167 26.0241 81.3414 26.6426C80.8661 27.2611 80.303 27.6908 79.652 27.9316C79.0009 28.1725 78.1839 28.293 77.2008 28.293C76.0224 28.293 75.0458 28.1562 74.2711 27.8828C73.4964 27.6094 72.9169 27.2969 72.5328 26.9453ZM84.8121 14.6406C84.5322 14.2109 84.6201 13.9961 85.0758 13.9961H86.1695C86.456 13.9961 86.6904 14.1556 86.8727 14.4746L89.3531 18.7422C89.6266 19.2109 89.8609 19.6211 90.0563 19.9727C90.2516 20.3177 90.4404 20.6855 90.6227 21.0762H90.6617C90.844 20.6855 91.0328 20.3177 91.2281 19.9727C91.4234 19.6211 91.6578 19.2109 91.9313 18.7422L94.4117 14.4746C94.594 14.1556 94.8284 13.9961 95.1148 13.9961H96.2086C96.6643 13.9961 96.7522 14.2109 96.4723 14.6406L91.5797 22.2383V27.4629C91.5797 27.821 91.4169 28 91.0914 28H90.193C89.8674 28 89.7047 27.821 89.7047 27.4629V22.2383L84.8121 14.6406ZM99.2008 26.9453C98.8557 26.6328 98.7646 26.3594 98.9273 26.125L99.4352 25.3926C99.6109 25.1387 99.8941 25.1582 100.285 25.4512C100.799 25.8353 101.333 26.151 101.886 26.3984C102.446 26.6458 103.123 26.7695 103.918 26.7695C104.504 26.7695 104.998 26.6816 105.402 26.5059C105.806 26.3301 106.128 26.0794 106.369 25.7539C106.616 25.4219 106.74 25.0215 106.74 24.5527C106.74 24.2142 106.688 23.9017 106.584 23.6152C106.486 23.3223 106.326 23.0781 106.105 22.8828C105.884 22.6875 105.653 22.5345 105.412 22.4238C105.015 22.2415 104.419 22.0299 103.625 21.7891C102.837 21.5482 102.147 21.2878 101.554 21.0078C100.968 20.7279 100.5 20.3893 100.148 19.9922C99.803 19.5951 99.5719 19.1882 99.4547 18.7715C99.344 18.3483 99.2887 17.8665 99.2887 17.3262C99.2887 16.4993 99.5296 15.7865 100.011 15.1875C100.493 14.5885 101.082 14.1914 101.779 13.9961C102.482 13.8008 103.195 13.7031 103.918 13.7031C104.744 13.7031 105.464 13.8105 106.076 14.0254C106.688 14.2402 107.235 14.5202 107.716 14.8652C108.055 15.1061 108.133 15.36 107.951 15.627L107.453 16.3398C107.303 16.5547 107.01 16.5091 106.574 16.2031C106.242 15.9688 105.835 15.7507 105.353 15.5488C104.878 15.3405 104.406 15.2363 103.937 15.2363C103.338 15.2363 102.84 15.3079 102.443 15.4512C102.046 15.5879 101.733 15.8223 101.505 16.1543C101.278 16.4863 101.164 16.8704 101.164 17.3066C101.164 17.5801 101.19 17.834 101.242 18.0684C101.294 18.2962 101.427 18.5306 101.642 18.7715C101.857 19.0124 102.117 19.1979 102.423 19.3281C102.834 19.5039 103.468 19.7122 104.328 19.9531C105.194 20.1875 105.949 20.4772 106.593 20.8223C107.192 21.1413 107.622 21.4766 107.882 21.8281C108.149 22.1732 108.354 22.5508 108.498 22.9609C108.647 23.3646 108.722 23.8203 108.722 24.3281C108.722 25.2526 108.485 26.0241 108.009 26.6426C107.534 27.2611 106.971 27.6908 106.32 27.9316C105.669 28.1725 104.852 28.293 103.869 28.293C102.69 28.293 101.714 28.1562 100.939 27.8828C100.164 27.6094 99.5849 27.2969 99.2008 26.9453ZM111.421 15.6758C111.063 15.6758 110.884 15.5293 110.884 15.2363V14.4355C110.884 14.1426 111.063 13.9961 111.421 13.9961H121.754C122.112 13.9961 122.291 14.1426 122.291 14.4355V15.2363C122.291 15.5293 122.112 15.6758 121.754 15.6758H117.525V27.4629C117.525 27.821 117.362 28 117.037 28H116.138C115.813 28 115.65 27.821 115.65 27.4629V15.6758H111.421ZM125.791 28C125.465 28 125.302 27.821 125.302 27.4629V14.5332C125.302 14.1751 125.465 13.9961 125.791 13.9961H134.336C134.694 13.9961 134.873 14.1426 134.873 14.4355V15.1582C134.873 15.4512 134.694 15.5977 134.336 15.5977H127.177V19.9336H133.75C134.108 19.9336 134.287 20.0801 134.287 20.373V21.0957C134.287 21.3887 134.108 21.5352 133.75 21.5352H127.177V26.3984H134.629C134.987 26.3984 135.166 26.5449 135.166 26.8379V27.5605C135.166 27.8535 134.987 28 134.629 28H125.791ZM139.193 28C138.867 28 138.705 27.821 138.705 27.4629V14.5332C138.705 14.1751 138.867 13.9961 139.193 13.9961H141.273C141.52 13.9961 141.706 14.1914 141.83 14.582L144.623 23.3418C144.909 24.2402 145.078 24.7839 145.13 24.9727C145.183 25.1549 145.257 25.4935 145.355 25.9883H145.414C145.511 25.4935 145.586 25.1549 145.638 24.9727C145.69 24.7839 145.86 24.2402 146.146 23.3418L148.939 14.582C149.063 14.1914 149.248 13.9961 149.496 13.9961H151.576C151.901 13.9961 152.064 14.1751 152.064 14.5332V27.4629C152.064 27.821 151.901 28 151.576 28H150.677C150.352 28 150.189 27.821 150.189 27.4629V17.2188C150.189 16.9583 150.196 16.6979 150.209 16.4375H150.17L146.566 27.4043C146.436 27.8014 146.221 28 145.921 28H144.847C144.548 28 144.333 27.8014 144.203 27.4043L140.599 16.4375H140.56C140.573 16.6979 140.58 16.9583 140.58 17.2188V27.4629C140.58 27.821 140.417 28 140.091 28H139.193Z" fill="#EE0600"/>
<path d="M60.7027 23.2344C60.4098 23.2344 60.2633 23.1204 60.2633 22.8926V22.3066C60.2633 22.0788 60.4098 21.9648 60.7027 21.9648H69.1207C69.4137 21.9648 69.5602 22.0788 69.5602 22.3066V22.8926C69.5602 23.1204 69.4137 23.2344 69.1207 23.2344H60.7027Z" fill="black"/>
<path d="M4.94922 25.7578H3.94922V26.7578H4.94922V25.7578ZM3.00781 27C2.98294 27 3.00434 26.9963 3.05299 27.0141C3.10738 27.0341 3.17551 27.0738 3.23506 27.1393C3.35327 27.2694 3.32422 27.3669 3.32422 27.248H1.32422C1.32422 27.6305 1.4091 28.104 1.75518 28.4847C2.11769 28.8834 2.59994 29 3.00781 29V27ZM3.32422 27.248V9.14648H1.32422V27.248H3.32422ZM3.32422 9.14648C3.32422 9.02765 3.35327 9.12516 3.23506 9.25519C3.17551 9.32069 3.10738 9.36046 3.05299 9.3804C3.00434 9.39824 2.98294 9.39453 3.00781 9.39453V7.39453C2.59994 7.39453 2.11769 7.51108 1.75518 7.90985C1.4091 8.29053 1.32422 8.76402 1.32422 9.14648H3.32422ZM3.00781 9.39453H4.26562V7.39453H3.00781V9.39453ZM4.26562 9.39453C4.29049 9.39453 4.26909 9.39824 4.22044 9.3804C4.16606 9.36046 4.09793 9.32069 4.03838 9.25519C3.92017 9.12516 3.94922 9.02765 3.94922 9.14648H5.94922C5.94922 8.76402 5.86434 8.29053 5.51826 7.90985C5.15575 7.51108 4.6735 7.39453 4.26562 7.39453V9.39453ZM3.94922 9.14648V25.7578H5.94922V9.14648H3.94922ZM4.94922 26.7578H14.0137V24.7578H4.94922V26.7578ZM14.0137 26.7578C14.1535 26.7578 14.0726 26.7905 13.9444 26.6856C13.8745 26.6284 13.8225 26.5547 13.7925 26.4812C13.7651 26.4138 13.7656 26.3704 13.7656 26.373H15.7656C15.7656 25.9549 15.6281 25.4791 15.2109 25.1377C14.832 24.8277 14.3752 24.7578 14.0137 24.7578V26.7578ZM13.7656 26.373V27.3848H15.7656V26.373H13.7656ZM13.7656 27.3848C13.7656 27.3874 13.7651 27.3441 13.7925 27.2766C13.8225 27.2031 13.8745 27.1295 13.9444 27.0722C14.0726 26.9673 14.1535 27 14.0137 27V29C14.3752 29 14.832 28.9301 15.2109 28.6201C15.6281 28.2788 15.7656 27.8029 15.7656 27.3848H13.7656ZM14.0137 27H3.00781V29H14.0137V27ZM20.4664 15.5977V14.5977H19.4664V15.5977H20.4664ZM20.4664 19.9336H19.4664V20.9336H20.4664V19.9336ZM20.4664 21.5352V20.5352H19.4664V21.5352H20.4664ZM20.4664 26.3984H19.4664V27.3984H20.4664V26.3984ZM19.0797 27C19.0969 27 19.2862 27.0091 19.4534 27.193C19.6042 27.3589 19.5914 27.5101 19.5914 27.4629H17.5914C17.5914 27.7737 17.66 28.1935 17.9735 28.5384C18.3035 28.9014 18.7369 29 19.0797 29V27ZM19.5914 27.4629V14.5332H17.5914V27.4629H19.5914ZM19.5914 14.5332C19.5914 14.486 19.6042 14.6372 19.4534 14.803C19.2862 14.987 19.0969 14.9961 19.0797 14.9961V12.9961C18.7369 12.9961 18.3035 13.0947 17.9735 13.4577C17.66 13.8026 17.5914 14.2224 17.5914 14.5332H19.5914ZM19.0797 14.9961H27.6246V12.9961H19.0797V14.9961ZM27.6246 14.9961C27.6928 14.9961 27.5582 15.0141 27.3942 14.8799C27.3064 14.808 27.241 14.7161 27.2021 14.6206C27.1656 14.5312 27.1617 14.4622 27.1617 14.4355H29.1617C29.1617 14.076 29.0421 13.6441 28.6607 13.332C28.3176 13.0513 27.9145 12.9961 27.6246 12.9961V14.9961ZM27.1617 14.4355V15.1582H29.1617V14.4355H27.1617ZM27.1617 15.1582C27.1617 15.1315 27.1656 15.0626 27.2021 14.9732C27.241 14.8776 27.3064 14.7857 27.3942 14.7138C27.5582 14.5797 27.6928 14.5977 27.6246 14.5977V16.5977C27.9145 16.5977 28.3176 16.5424 28.6607 16.2618C29.0421 15.9497 29.1617 15.5177 29.1617 15.1582H27.1617ZM27.6246 14.5977H20.4664V16.5977H27.6246V14.5977ZM19.4664 15.5977V19.9336H21.4664V15.5977H19.4664ZM20.4664 20.9336H27.0387V18.9336H20.4664V20.9336ZM27.0387 20.9336C27.1069 20.9336 26.9723 20.9516 26.8083 20.8174C26.7204 20.7455 26.655 20.6536 26.6161 20.5581C26.5797 20.4687 26.5758 20.3997 26.5758 20.373H28.5758C28.5758 20.0135 28.4562 19.5816 28.0747 19.2695C27.7317 18.9888 27.3286 18.9336 27.0387 18.9336V20.9336ZM26.5758 20.373V21.0957H28.5758V20.373H26.5758ZM26.5758 21.0957C26.5758 21.069 26.5797 21.0001 26.6161 20.9107C26.655 20.8151 26.7204 20.7232 26.8083 20.6513C26.9723 20.5172 27.1069 20.5352 27.0387 20.5352V22.5352C27.3286 22.5352 27.7317 22.4799 28.0747 22.1993C28.4562 21.8872 28.5758 21.4552 28.5758 21.0957H26.5758ZM27.0387 20.5352H20.4664V22.5352H27.0387V20.5352ZM19.4664 21.5352V26.3984H21.4664V21.5352H19.4664ZM20.4664 27.3984H27.9176V25.3984H20.4664V27.3984ZM27.9176 27.3984C27.9858 27.3984 27.8512 27.4164 27.6872 27.2823C27.5993 27.2104 27.5339 27.1185 27.495 27.0229C27.4586 26.9335 27.4547 26.8646 27.4547 26.8379H29.4547C29.4547 26.4784 29.3351 26.0464 28.9536 25.7343C28.6106 25.4537 28.2075 25.3984 27.9176 25.3984V27.3984ZM27.4547 26.8379V27.5605H29.4547V26.8379H27.4547ZM27.4547 27.5605C27.4547 27.5339 27.4586 27.4649 27.495 27.3755C27.5339 27.28 27.5993 27.1881 27.6872 27.1162C27.8512 26.982 27.9858 27 27.9176 27V29C28.2075 29 28.6106 28.9448 28.9536 28.6641C29.3351 28.352 29.4547 27.9201 29.4547 27.5605H27.4547ZM27.9176 27H19.0797V29H27.9176V27ZM32.9215 15.6465L32.1687 14.9882L32.1684 14.9885L32.9215 15.6465ZM40.8609 14.3379L40.3967 15.2236L40.4023 15.2265L40.8609 14.3379ZM42.5992 16.0566L41.6984 16.4909L41.6987 16.4914L42.5992 16.0566ZM42.5113 16.8379L43.0145 17.7021L43.0224 17.6974L42.5113 16.8379ZM41.7398 17.2871L42.2383 18.154L42.243 18.1513L41.7398 17.2871ZM41.0465 16.916L41.938 16.4629L41.9323 16.452L41.0465 16.916ZM34.3375 16.75L33.5301 16.16L33.5294 16.1609L34.3375 16.75ZM34.3375 25.2559L33.5276 25.8425L33.5319 25.8483L34.3375 25.2559ZM40.1383 26.125L39.5339 25.3283L39.5295 25.3317L40.1383 26.125ZM41.3687 24.7773L42.2481 25.2536L42.2507 25.2487L41.3687 24.7773ZM42.0719 24.4355L42.5646 23.5654L42.5611 23.5634L42.0719 24.4355ZM42.8824 24.8945L43.3863 24.0307L43.3752 24.0244L42.8824 24.8945ZM42.941 25.6758L43.8308 26.1323L43.8324 26.129L42.941 25.6758ZM41.066 27.5508L41.5622 28.419L41.5671 28.4162L41.066 27.5508ZM32.9215 26.3594L32.1668 27.0155L32.1703 27.0195L32.9215 26.3594ZM32.232 20.998C32.232 18.8802 32.7538 17.3582 33.6745 16.3045L32.1684 14.9885C30.8366 16.5128 30.232 18.5586 30.232 20.998H32.232ZM33.6743 16.3047C34.5745 15.2751 35.8953 14.7031 37.7945 14.7031V12.7031C35.462 12.7031 33.5341 13.4267 32.1687 14.9882L33.6743 16.3047ZM37.7945 14.7031C38.9248 14.7031 39.7745 14.8975 40.3967 15.2236L41.3252 13.4522C40.3328 12.932 39.1382 12.7031 37.7945 12.7031V14.7031ZM40.4023 15.2265C41.0416 15.5565 41.4525 15.9808 41.6984 16.4909L43.5 15.6223C43.0428 14.6741 42.2949 13.9526 41.3196 13.4493L40.4023 15.2265ZM41.6987 16.4914C41.7526 16.603 41.7047 16.5615 41.7202 16.4234C41.7294 16.3423 41.7591 16.2451 41.8213 16.1523C41.8821 16.0614 41.9522 16.0069 42.0003 15.9784L43.0224 17.6974C43.3902 17.4787 43.6553 17.1125 43.7077 16.647C43.7525 16.2484 43.6282 15.8879 43.4998 15.6219L41.6987 16.4914ZM42.0081 15.9737L41.2367 16.4229L42.243 18.1513L43.0145 17.7021L42.0081 15.9737ZM41.2414 16.4202C41.2828 16.3964 41.3709 16.3562 41.4971 16.3495C41.63 16.3425 41.7508 16.3756 41.8431 16.425C41.9269 16.4699 41.967 16.5169 41.9724 16.5234C41.9781 16.5302 41.9646 16.5153 41.938 16.463L40.155 17.3691C40.2906 17.6358 40.5162 17.9833 40.8993 18.1883C41.3682 18.4392 41.8604 18.3713 42.2383 18.154L41.2414 16.4202ZM41.9323 16.452C41.6284 15.8718 41.1581 15.3789 40.5832 14.9573L39.4004 16.5701C39.8021 16.8646 40.0349 17.1399 40.1607 17.38L41.9323 16.452ZM40.5832 14.9573C39.8563 14.4243 38.9146 14.2266 37.8922 14.2266V16.2266C38.6927 16.2266 39.1507 16.3869 39.4004 16.5701L40.5832 14.9573ZM37.8922 14.2266C36.0487 14.2266 34.5142 14.8133 33.5301 16.16L35.1449 17.34C35.6452 16.6554 36.4804 16.2266 37.8922 16.2266V14.2266ZM33.5294 16.1609C32.6235 17.4036 32.234 19.0566 32.234 20.998H34.234C34.234 19.2937 34.5801 18.1147 35.1456 17.3391L33.5294 16.1609ZM32.234 20.998C32.234 22.9401 32.6237 24.5946 33.5276 25.8425L35.1474 24.6692C34.5799 23.8859 34.234 22.7019 34.234 20.998H32.234ZM33.5319 25.8483C34.5169 27.1876 36.0511 27.7695 37.8922 27.7695V25.7695C36.4781 25.7695 35.6424 25.3423 35.1431 24.6634L33.5319 25.8483ZM37.8922 27.7695C38.9778 27.7695 39.9629 27.5201 40.7471 26.9183L39.5295 25.3317C39.1939 25.5892 38.6816 25.7695 37.8922 25.7695V27.7695ZM40.7427 26.9217C41.3865 26.4332 41.9077 25.8819 42.248 25.2536L40.4895 24.3011C40.322 24.6103 40.0228 24.9574 39.5339 25.3283L40.7427 26.9217ZM42.2507 25.2487C42.3105 25.1368 42.2927 25.2305 42.1331 25.3081C42.0399 25.3534 41.9257 25.3786 41.8065 25.3701C41.6939 25.3621 41.6168 25.3269 41.5826 25.3077L42.5611 23.5634C42.1992 23.3604 41.725 23.2827 41.2587 23.5093C40.8647 23.7009 40.6288 24.0403 40.4868 24.306L42.2507 25.2487ZM41.5791 25.3057L42.3897 25.7647L43.3752 24.0244L42.5646 23.5654L41.5791 25.3057ZM42.3786 25.7583C42.3209 25.7247 42.2412 25.6619 42.1754 25.5589C42.1087 25.4545 42.0818 25.3489 42.0757 25.2672C42.07 25.1919 42.0824 25.148 42.0825 25.1478C42.0827 25.1469 42.076 25.1707 42.0496 25.2225L43.8324 26.129C43.9648 25.8687 44.0997 25.5131 44.0701 25.1176C44.0346 24.6443 43.7745 24.2572 43.3863 24.0308L42.3786 25.7583ZM42.0513 25.2193C41.7702 25.7672 41.2966 26.2618 40.565 26.6854L41.5671 28.4162C42.5672 27.8372 43.3436 27.0818 43.8308 26.1323L42.0513 25.2193ZM40.5699 26.6825C39.8958 27.0677 38.9894 27.293 37.7945 27.293V29.293C39.2299 29.293 40.5045 29.0234 41.5622 28.419L40.5699 26.6825ZM37.7945 27.293C35.8937 27.293 34.5724 26.7231 33.6726 25.6993L32.1703 27.0195C33.5362 28.5737 35.4636 29.293 37.7945 29.293V27.293ZM33.6762 25.7033C32.7537 24.6421 32.232 23.1156 32.232 20.998H30.232C30.232 23.4378 30.8367 25.4855 32.1668 27.0155L33.6762 25.7033ZM48.5602 19.9141H47.5602V20.9141H48.5602V19.9141ZM55.3766 19.9141V20.9141H56.3766V19.9141H55.3766ZM55.3766 21.5156H56.3766V20.5156H55.3766V21.5156ZM48.5602 21.5156V20.5156H47.5602V21.5156H48.5602ZM47.1734 27C47.1907 27 47.38 27.0091 47.5472 27.193C47.6979 27.3589 47.6852 27.5101 47.6852 27.4629H45.6852C45.6852 27.7737 45.7538 28.1935 46.0673 28.5384C46.3972 28.9014 46.8307 29 47.1734 29V27ZM47.6852 27.4629V14.5332H45.6852V27.4629H47.6852ZM47.6852 14.5332C47.6852 14.486 47.6979 14.6372 47.5472 14.803C47.38 14.987 47.1907 14.9961 47.1734 14.9961V12.9961C46.8307 12.9961 46.3972 13.0947 46.0673 13.4577C45.7538 13.8026 45.6852 14.2224 45.6852 14.5332H47.6852ZM47.1734 14.9961H48.0719V12.9961H47.1734V14.9961ZM48.0719 14.9961C48.0546 14.9961 47.8653 14.987 47.6981 14.803C47.5474 14.6372 47.5602 14.486 47.5602 14.5332H49.5602C49.5602 14.2224 49.4916 13.8026 49.178 13.4577C48.8481 13.0947 48.4146 12.9961 48.0719 12.9961V14.9961ZM47.5602 14.5332V19.9141H49.5602V14.5332H47.5602ZM48.5602 20.9141H55.3766V18.9141H48.5602V20.9141ZM56.3766 19.9141V14.5332H54.3766V19.9141H56.3766ZM56.3766 14.5332C56.3766 14.486 56.3893 14.6372 56.2386 14.803C56.0714 14.987 55.8821 14.9961 55.8648 14.9961V12.9961C55.5221 12.9961 55.0887 13.0947 54.7587 13.4577C54.4452 13.8026 54.3766 14.2224 54.3766 14.5332H56.3766ZM55.8648 14.9961H56.7633V12.9961H55.8648V14.9961ZM56.7633 14.9961C56.746 14.9961 56.5568 14.987 56.3896 14.803C56.2388 14.6372 56.2516 14.486 56.2516 14.5332H58.2516C58.2516 14.2224 58.183 13.8026 57.8694 13.4577C57.5395 13.0947 57.1061 12.9961 56.7633 12.9961V14.9961ZM56.2516 14.5332V27.4629H58.2516V14.5332H56.2516ZM56.2516 27.4629C56.2516 27.5101 56.2388 27.3589 56.3896 27.193C56.5568 27.0091 56.746 27 56.7633 27V29C57.1061 29 57.5395 28.9014 57.8694 28.5384C58.183 28.1935 58.2516 27.7737 58.2516 27.4629H56.2516ZM56.7633 27H55.8648V29H56.7633V27ZM55.8648 27C55.8821 27 56.0714 27.0091 56.2386 27.193C56.3893 27.3589 56.3766 27.5101 56.3766 27.4629H54.3766C54.3766 27.7737 54.4452 28.1935 54.7587 28.5384C55.0887 28.9014 55.5221 29 55.8648 29V27ZM56.3766 27.4629V21.5156H54.3766V27.4629H56.3766ZM55.3766 20.5156H48.5602V22.5156H55.3766V20.5156ZM47.5602 21.5156V27.4629H49.5602V21.5156H47.5602ZM47.5602 27.4629C47.5602 27.5101 47.5474 27.3589 47.6981 27.193C47.8653 27.0091 48.0546 27 48.0719 27V29C48.4146 29 48.8481 28.9014 49.178 28.5384C49.4916 28.1935 49.5602 27.7737 49.5602 27.4629H47.5602ZM48.0719 27H47.1734V29H48.0719V27ZM60.7027 22.2344C60.6583 22.2344 60.8089 22.221 60.9871 22.3596C61.0843 22.4352 61.1617 22.5357 61.2099 22.6482C61.2555 22.7546 61.2633 22.8439 61.2633 22.8926H59.2633C59.2633 23.2372 59.3868 23.6487 59.7592 23.9383C60.0838 24.1908 60.4542 24.2344 60.7027 24.2344V22.2344ZM61.2633 22.8926V22.3066H59.2633V22.8926H61.2633ZM61.2633 22.3066C61.2633 22.3554 61.2555 22.4446 61.2099 22.551C61.1617 22.6635 61.0843 22.764 60.9871 22.8396C60.8089 22.9782 60.6583 22.9648 60.7027 22.9648V20.9648C60.4542 20.9648 60.0838 21.0085 59.7592 21.2609C59.3868 21.5506 59.2633 21.9621 59.2633 22.3066H61.2633ZM60.7027 22.9648H69.1207V20.9648H60.7027V22.9648ZM69.1207 22.9648C69.1652 22.9648 69.0145 22.9782 68.8364 22.8396C68.7392 22.764 68.6617 22.6635 68.6135 22.551C68.5679 22.4446 68.5602 22.3554 68.5602 22.3066H70.5602C70.5602 21.9621 70.4366 21.5506 70.0642 21.2609C69.7396 21.0085 69.3692 20.9648 69.1207 20.9648V22.9648ZM68.5602 22.3066V22.8926H70.5602V22.3066H68.5602ZM68.5602 22.8926C68.5602 22.8439 68.5679 22.7546 68.6135 22.6482C68.6617 22.5357 68.7392 22.4352 68.8364 22.3596C69.0145 22.221 69.1652 22.2344 69.1207 22.2344V24.2344C69.3692 24.2344 69.7396 24.1908 70.0642 23.9383C70.4366 23.6487 70.5602 23.2372 70.5602 22.8926H68.5602ZM69.1207 22.2344H60.7027V24.2344H69.1207V22.2344ZM72.5328 26.9453L73.208 26.2076L73.2041 26.2041L72.5328 26.9453ZM72.2594 26.125L73.0807 26.6954L73.0812 26.6948L72.2594 26.125ZM72.7672 25.3926L73.589 25.9624L73.5894 25.9618L72.7672 25.3926ZM73.6168 25.4512L73.0168 26.2512L73.0184 26.2524L73.6168 25.4512ZM75.2184 26.3984L74.8102 27.3114L74.8142 27.3131L75.2184 26.3984ZM79.7008 25.7539L78.8989 25.1564L78.8969 25.1591L79.7008 25.7539ZM79.9156 23.6152L78.9669 23.9315L78.9712 23.9443L78.9758 23.957L79.9156 23.6152ZM78.7438 22.4238L79.1613 21.5152L79.1609 21.515L78.7438 22.4238ZM76.9566 21.7891L76.6642 22.7454L76.6664 22.746L76.9566 21.7891ZM74.8863 21.0078L74.4552 21.9101L74.4591 21.912L74.8863 21.0078ZM73.4801 19.9922L72.7252 20.6481L72.7313 20.655L73.4801 19.9922ZM72.7867 18.7715L71.8193 19.0245L71.8216 19.0334L71.8241 19.0422L72.7867 18.7715ZM75.1109 13.9961L74.8433 13.0326L74.841 13.0332L75.1109 13.9961ZM81.0484 14.8652L80.4662 15.6782L80.4687 15.68L81.0484 14.8652ZM81.2828 15.627L82.1026 16.1997L82.1086 16.1909L81.2828 15.627ZM80.7848 16.3398L79.965 15.7671L79.9644 15.7681L80.7848 16.3398ZM79.9059 16.2031L79.3292 17.0201L79.3316 17.0218L79.9059 16.2031ZM78.6852 15.5488L78.2837 16.4647L78.2912 16.468L78.2988 16.4712L78.6852 15.5488ZM75.775 15.4512L76.1005 16.3967L76.1074 16.3943L76.1143 16.3919L75.775 15.4512ZM74.5738 18.0684L73.5976 18.2853L73.599 18.2912L74.5738 18.0684ZM75.7555 19.3281L76.1494 18.409L76.147 18.408L75.7555 19.3281ZM77.6598 19.9531L77.3899 20.9161L77.3985 20.9184L77.6598 19.9531ZM79.9254 20.8223L79.4534 21.7039L79.4553 21.7049L79.9254 20.8223ZM81.2145 21.8281L80.4109 22.4234L80.4171 22.4317L80.4235 22.44L81.2145 21.8281ZM81.8297 22.9609L80.8856 23.2906L80.8888 23.2997L80.8921 23.3087L81.8297 22.9609ZM81.3414 26.6426L80.5485 26.0333L81.3414 26.6426ZM73.2041 26.2041C73.1536 26.1584 73.1306 26.1303 73.1238 26.1211C73.1166 26.1114 73.1359 26.1344 73.1543 26.1896C73.1743 26.2496 73.1903 26.34 73.1751 26.4477C73.1599 26.5558 73.119 26.6402 73.0807 26.6954L71.438 25.5546C71.1747 25.9338 71.1129 26.3899 71.257 26.8221C71.3806 27.193 71.6319 27.4785 71.8615 27.6865L73.2041 26.2041ZM73.0812 26.6948L73.589 25.9624L71.9454 24.8228L71.4376 25.5552L73.0812 26.6948ZM73.5894 25.9618C73.5579 26.0073 73.4903 26.0846 73.3739 26.144C73.2536 26.2055 73.1339 26.2207 73.0426 26.2144C72.9604 26.2088 72.9175 26.1872 72.9232 26.1899C72.928 26.1921 72.9586 26.2076 73.0168 26.2512L74.2168 24.6512C73.9654 24.4626 73.6081 24.2487 73.1802 24.2192C72.651 24.1827 72.2123 24.4373 71.945 24.8234L73.5894 25.9618ZM73.0184 26.2524C73.5884 26.6781 74.1857 27.0321 74.8102 27.3114L75.6265 25.4855C75.1443 25.2699 74.6739 24.9925 74.2152 24.65L73.0184 26.2524ZM74.8142 27.3131C75.5333 27.6309 76.3558 27.7695 77.2496 27.7695V25.7695C76.5549 25.7695 76.0232 25.6608 75.6225 25.4838L74.8142 27.3131ZM77.2496 27.7695C77.9298 27.7695 78.5694 27.6683 79.1333 27.4227L78.3347 25.589C78.0913 25.695 77.7413 25.7695 77.2496 25.7695V27.7695ZM79.1333 27.4227C79.6832 27.1832 80.1505 26.8274 80.5046 26.3487L78.8969 25.1591C78.7693 25.3315 78.5921 25.477 78.3347 25.589L79.1333 27.4227ZM80.5027 26.3514C80.8954 25.8243 81.0719 25.207 81.0719 24.5527H79.0719C79.0719 24.8359 79.001 25.0195 78.8989 25.1564L80.5027 26.3514ZM81.0719 24.5527C81.0719 24.1105 81.0036 23.6809 80.8554 23.2735L78.9758 23.957C79.036 24.1225 79.0719 24.3179 79.0719 24.5527H81.0719ZM80.8643 23.299C80.7136 22.8468 80.4586 22.4505 80.0987 22.133L78.7755 23.6327C78.8584 23.7058 78.9224 23.7978 78.9669 23.9315L80.8643 23.299ZM80.0987 22.133C79.8124 21.8803 79.5003 21.6709 79.1613 21.5152L78.3263 23.3325C78.469 23.3981 78.6191 23.4947 78.7755 23.6327L80.0987 22.133ZM79.1609 21.515C78.701 21.3039 78.0533 21.0767 77.2469 20.8321L76.6664 22.746C77.4485 22.9832 77.9923 23.1792 78.3266 23.3327L79.1609 21.515ZM77.2491 20.8328C76.4963 20.6026 75.853 20.3586 75.3136 20.1037L74.4591 21.912C75.1046 22.217 75.8415 22.4938 76.6642 22.7454L77.2491 20.8328ZM75.3174 20.1055C74.826 19.8707 74.4741 19.6064 74.2288 19.3293L72.7313 20.655C73.1892 21.1722 73.7748 21.585 74.4552 21.9101L75.3174 20.1055ZM74.235 19.3363C73.9663 19.0271 73.8189 18.748 73.7494 18.5007L71.8241 19.0422C71.9889 19.6283 72.3038 20.163 72.7252 20.6481L74.235 19.3363ZM73.7542 18.5185C73.6695 18.1946 73.6207 17.8003 73.6207 17.3262H71.6207C71.6207 17.9328 71.6826 18.502 71.8193 19.0245L73.7542 18.5185ZM73.6207 17.3262C73.6207 16.7088 73.7949 16.2217 74.1226 15.8143L72.5641 14.5607C71.9283 15.3512 71.6207 16.2898 71.6207 17.3262H73.6207ZM74.1226 15.8143C74.4824 15.3669 74.8978 15.0944 75.3809 14.959L74.841 13.0332C73.9309 13.2884 73.1679 13.8102 72.5641 14.5607L74.1226 15.8143ZM75.3786 14.9596C75.9954 14.7883 76.6183 14.7031 77.2496 14.7031V12.7031C76.4356 12.7031 75.6327 12.8133 74.8433 13.0326L75.3786 14.9596ZM77.2496 14.7031C77.9931 14.7031 78.5957 14.8001 79.0766 14.9689L79.7391 13.0818C78.996 12.821 78.1597 12.7031 77.2496 12.7031V14.7031ZM79.0766 14.9689C79.6075 15.1553 80.0684 15.3933 80.4662 15.6782L81.6307 14.0522C81.065 13.6471 80.4321 13.3251 79.7391 13.0818L79.0766 14.9689ZM80.4687 15.68C80.5535 15.7404 80.4582 15.7028 80.4052 15.5304C80.3758 15.4351 80.3705 15.331 80.3901 15.2331C80.4085 15.1411 80.4429 15.0837 80.457 15.063L82.1086 16.1909C82.3302 15.8664 82.4648 15.4234 82.3167 14.9422C82.1856 14.516 81.8819 14.231 81.6282 14.0504L80.4687 15.68ZM80.4631 15.0542L79.965 15.7671L81.6045 16.9126L82.1026 16.1997L80.4631 15.0542ZM79.9644 15.7681C80.029 15.6753 80.1371 15.576 80.2885 15.5181C80.4319 15.4633 80.5503 15.4699 80.6064 15.4787C80.6587 15.4868 80.6729 15.4986 80.6405 15.483C80.6106 15.4686 80.5578 15.439 80.4801 15.3845L79.3316 17.0218C79.5903 17.2033 79.9244 17.3966 80.299 17.4549C80.5017 17.4864 80.7487 17.4833 81.0027 17.3862C81.2648 17.286 81.4657 17.1118 81.6052 16.9116L79.9644 15.7681ZM80.4825 15.3862C80.0771 15.0999 79.6024 14.8489 79.0715 14.6265L78.2988 16.4712C78.7314 16.6524 79.0706 16.8376 79.3292 17.0201L80.4825 15.3862ZM79.0866 14.633C78.4984 14.3751 77.8902 14.2363 77.2691 14.2363V16.2363C77.5856 16.2363 77.9214 16.3059 78.2837 16.4647L79.0866 14.633ZM77.2691 14.2363C76.599 14.2363 75.9769 14.3153 75.4357 14.5105L76.1143 16.3919C76.3674 16.3006 76.7414 16.2363 77.2691 16.2363V14.2363ZM75.4495 14.5056C74.8589 14.7089 74.3676 15.0717 74.013 15.5885L75.662 16.7201C75.7631 16.5729 75.8968 16.4668 76.1005 16.3967L75.4495 14.5056ZM74.013 15.5885C73.6612 16.101 73.4957 16.6861 73.4957 17.3066H75.4957C75.4957 17.0548 75.558 16.8716 75.662 16.7201L74.013 15.5885ZM73.4957 17.3066C73.4957 17.6432 73.5277 17.9707 73.5976 18.2853L75.55 17.8514C75.5158 17.6973 75.4957 17.517 75.4957 17.3066H73.4957ZM73.599 18.2912C73.7003 18.7343 73.9414 19.1159 74.2279 19.4371L75.7205 18.1059C75.5773 17.9453 75.5516 17.8581 75.5487 17.8455L73.599 18.2912ZM74.2279 19.4371C74.5438 19.7913 74.9266 20.0622 75.3639 20.2483L76.147 18.408C75.9724 18.3336 75.8343 18.2334 75.7205 18.1059L74.2279 19.4371ZM75.3616 20.2473C75.8345 20.45 76.5212 20.6725 77.3899 20.916L77.9297 18.9902C77.0796 18.752 76.4967 18.5578 76.1494 18.409L75.3616 20.2473ZM77.3985 20.9184C78.207 21.1372 78.8888 21.4016 79.4534 21.7039L80.3974 19.9407C79.6729 19.5528 78.8443 19.2378 77.921 18.9879L77.3985 20.9184ZM79.4553 21.7049C79.9882 21.9887 80.2742 22.2389 80.4109 22.4234L82.018 21.2329C81.6338 20.7143 81.0605 20.2938 80.3955 19.9396L79.4553 21.7049ZM80.4235 22.44C80.6248 22.7002 80.778 22.9826 80.8856 23.2906L82.7738 22.6313C82.5949 22.119 82.338 21.6461 82.0054 21.2163L80.4235 22.44ZM80.8921 23.3087C80.9939 23.5831 81.0543 23.9182 81.0543 24.3281H83.0543C83.0543 23.7224 82.965 23.1461 82.7673 22.6131L80.8921 23.3087ZM81.0543 24.3281C81.0543 25.0745 80.8658 25.6203 80.5485 26.0333L82.1343 27.2519C82.7675 26.4279 83.0543 25.4307 83.0543 24.3281H81.0543ZM80.5485 26.0333C80.1734 26.5214 79.7582 26.8261 79.3049 26.9938L79.999 28.8695C80.8478 28.5554 81.5589 28.0007 82.1343 27.2519L80.5485 26.0333ZM79.3049 26.9938C78.8008 27.1803 78.1108 27.293 77.2008 27.293V29.293C78.2569 29.293 79.2011 29.1647 79.999 28.8695L79.3049 26.9938ZM77.2008 27.293C76.0908 27.293 75.2363 27.163 74.6039 26.9398L73.9383 28.8258C74.8554 29.1495 75.954 29.293 77.2008 29.293V27.293ZM74.6039 26.9398C73.8908 26.6882 73.4523 26.4312 73.208 26.2076L71.8577 27.683C72.3816 28.1625 73.1019 28.5306 73.9383 28.8258L74.6039 26.9398ZM84.8121 14.6406L85.6529 14.0992L85.65 14.0947L84.8121 14.6406ZM86.8727 14.4746L86.0044 14.9708L86.0081 14.9771L86.8727 14.4746ZM89.3531 18.7422L88.4886 19.2447L88.4893 19.2461L89.3531 18.7422ZM90.0563 19.9727L89.1821 20.4583L89.186 20.4653L90.0563 19.9727ZM90.6227 21.0762L89.7165 21.4991L89.9858 22.0762H90.6227V21.0762ZM90.6617 21.0762V22.0762H91.2986L91.5679 21.4991L90.6617 21.0762ZM91.2281 19.9727L92.0984 20.4653L92.1023 20.4583L91.2281 19.9727ZM91.9313 18.7422L92.795 19.2461L92.7958 19.2447L91.9313 18.7422ZM94.4117 14.4746L95.2763 14.9771L95.28 14.9707L94.4117 14.4746ZM96.4723 14.6406L95.6344 14.0947L95.6315 14.0992L96.4723 14.6406ZM91.5797 22.2383L90.7389 21.6969L90.5797 21.9442V22.2383H91.5797ZM89.7047 22.2383H90.7047V21.9442L90.5454 21.6969L89.7047 22.2383ZM85.65 14.0947C85.608 14.0303 85.6157 14.0267 85.6295 14.0731C85.6422 14.1158 85.6894 14.3018 85.5936 14.5359C85.4872 14.796 85.2863 14.9206 85.1705 14.9664C85.0747 15.0043 85.0251 14.9961 85.0758 14.9961V12.9961C84.8986 12.9961 84.6671 13.0148 84.4354 13.1064C84.1837 13.2058 83.8929 13.411 83.7425 13.7786C83.6028 14.1201 83.652 14.4403 83.7128 14.6442C83.7746 14.8517 83.8763 15.0361 83.9742 15.1865L85.65 14.0947ZM85.0758 14.9961H86.1695V12.9961H85.0758V14.9961ZM86.1695 14.9961C86.1471 14.9961 86.1164 14.9928 86.0818 14.9822C86.0471 14.9715 86.0185 14.9567 85.9975 14.9424C85.9575 14.9152 85.9672 14.9056 86.0044 14.9707L87.7409 13.9785C87.4388 13.4497 86.9185 12.9961 86.1695 12.9961V14.9961ZM86.0081 14.9771L88.4886 19.2447L90.2177 18.2397L87.7372 13.9721L86.0081 14.9771ZM88.4893 19.2461C88.7604 19.7107 88.9911 20.1145 89.1821 20.4583L90.9304 19.487C90.7308 19.1277 90.4927 18.7112 90.2169 18.2383L88.4893 19.2461ZM89.186 20.4653C89.3674 20.7857 89.5443 21.1301 89.7165 21.4991L91.5288 20.6533C91.3364 20.241 91.1358 19.8497 90.9265 19.4801L89.186 20.4653ZM90.6227 22.0762H90.6617V20.0762H90.6227V22.0762ZM91.5679 21.4991C91.7401 21.1301 91.917 20.7857 92.0984 20.4653L90.3579 19.4801C90.1486 19.8497 89.9479 20.241 89.7555 20.6533L91.5679 21.4991ZM92.1023 20.4583C92.2933 20.1145 92.524 19.7107 92.795 19.2461L91.0675 18.2383C90.7916 18.7112 90.5536 19.1277 90.354 19.487L92.1023 20.4583ZM92.7958 19.2447L95.2763 14.9771L93.5472 13.9721L91.0667 18.2397L92.7958 19.2447ZM95.28 14.9707C95.3172 14.9056 95.3268 14.9152 95.2868 14.9424C95.2659 14.9567 95.2373 14.9715 95.2026 14.9822C95.168 14.9928 95.1373 14.9961 95.1148 14.9961V12.9961C94.3659 12.9961 93.8456 13.4497 93.5435 13.9785L95.28 14.9707ZM95.1148 14.9961H96.2086V12.9961H95.1148V14.9961ZM96.2086 14.9961C96.2593 14.9961 96.2097 15.0043 96.1139 14.9664C95.9981 14.9206 95.7972 14.796 95.6908 14.5359C95.595 14.3018 95.6422 14.1158 95.6549 14.0731C95.6687 14.0267 95.6764 14.0303 95.6344 14.0947L97.3101 15.1865C97.4081 15.0361 97.5098 14.8517 97.5716 14.6442C97.6324 14.4403 97.6816 14.1201 97.5419 13.7786C97.3915 13.411 97.1006 13.2058 96.849 13.1064C96.6172 13.0148 96.3858 12.9961 96.2086 12.9961V14.9961ZM95.6315 14.0992L90.7389 21.6969L92.4204 22.7797L97.313 15.182L95.6315 14.0992ZM90.5797 22.2383V27.4629H92.5797V22.2383H90.5797ZM90.5797 27.4629C90.5797 27.5101 90.5669 27.3589 90.7177 27.193C90.8849 27.0091 91.0742 27 91.0914 27V29C91.4342 29 91.8676 28.9014 92.1976 28.5384C92.5111 28.1935 92.5797 27.7737 92.5797 27.4629H90.5797ZM91.0914 27H90.193V29H91.0914V27ZM90.193 27C90.2102 27 90.3995 27.0091 90.5667 27.193C90.7175 27.3589 90.7047 27.5101 90.7047 27.4629H88.7047C88.7047 27.7737 88.7733 28.1935 89.0868 28.5384C89.4168 28.9014 89.8502 29 90.193 29V27ZM90.7047 27.4629V22.2383H88.7047V27.4629H90.7047ZM90.5454 21.6969L85.6529 14.0992L83.9714 15.182L88.8639 22.7797L90.5454 21.6969ZM99.2008 26.9453L99.876 26.2076L99.8721 26.2041L99.2008 26.9453ZM98.9273 26.125L99.7487 26.6954L99.7491 26.6948L98.9273 26.125ZM99.4352 25.3926L100.257 25.9624L100.257 25.9618L99.4352 25.3926ZM100.285 25.4512L99.6848 26.2512L99.6864 26.2524L100.285 25.4512ZM101.886 26.3984L101.478 27.3114L101.482 27.3131L101.886 26.3984ZM106.369 25.7539L105.567 25.1564L105.565 25.1591L106.369 25.7539ZM106.584 23.6152L105.635 23.9315L105.639 23.9443L105.644 23.957L106.584 23.6152ZM105.412 22.4238L105.829 21.5152L105.829 21.515L105.412 22.4238ZM103.625 21.7891L103.332 22.7454L103.334 22.746L103.625 21.7891ZM101.554 21.0078L101.123 21.9101L101.127 21.912L101.554 21.0078ZM100.148 19.9922L99.3931 20.6481L99.3993 20.655L100.148 19.9922ZM99.4547 18.7715L98.4872 19.0245L98.4896 19.0334L98.492 19.0422L99.4547 18.7715ZM101.779 13.9961L101.511 13.0326L101.509 13.0332L101.779 13.9961ZM107.716 14.8652L107.134 15.6782L107.137 15.68L107.716 14.8652ZM107.951 15.627L108.771 16.1997L108.777 16.1909L107.951 15.627ZM107.453 16.3398L106.633 15.7671L106.632 15.7681L107.453 16.3398ZM106.574 16.2031L105.997 17.0201L106 17.0218L106.574 16.2031ZM105.353 15.5488L104.952 16.4647L104.959 16.468L104.967 16.4712L105.353 15.5488ZM102.443 15.4512L102.768 16.3967L102.775 16.3943L102.782 16.3919L102.443 15.4512ZM101.242 18.0684L100.266 18.2853L100.267 18.2912L101.242 18.0684ZM102.423 19.3281L102.817 18.409L102.815 18.408L102.423 19.3281ZM104.328 19.9531L104.058 20.9161L104.066 20.9184L104.328 19.9531ZM106.593 20.8223L106.121 21.7039L106.123 21.7049L106.593 20.8223ZM107.882 21.8281L107.079 22.4234L107.085 22.4317L107.091 22.44L107.882 21.8281ZM108.498 22.9609L107.554 23.2906L107.557 23.2997L107.56 23.3087L108.498 22.9609ZM108.009 26.6426L107.216 26.0333L108.009 26.6426ZM99.8721 26.2041C99.8216 26.1584 99.7986 26.1303 99.7917 26.1211C99.7845 26.1114 99.8039 26.1344 99.8223 26.1896C99.8423 26.2496 99.8583 26.34 99.8431 26.4477C99.8278 26.5558 99.787 26.6402 99.7487 26.6954L98.106 25.5546C97.8426 25.9338 97.7809 26.3899 97.925 26.8221C98.0486 27.193 98.2998 27.4785 98.5295 27.6865L99.8721 26.2041ZM99.7491 26.6948L100.257 25.9624L98.6134 24.8228L98.1055 25.5552L99.7491 26.6948ZM100.257 25.9618C100.226 26.0073 100.158 26.0846 100.042 26.144C99.9216 26.2055 99.8018 26.2207 99.7106 26.2144C99.6284 26.2088 99.5854 26.1872 99.5912 26.1899C99.5959 26.1921 99.6266 26.2076 99.6848 26.2512L100.885 24.6512C100.633 24.4626 100.276 24.2487 99.8482 24.2192C99.319 24.1827 98.8802 24.4373 98.613 24.8234L100.257 25.9618ZM99.6864 26.2524C100.256 26.6781 100.854 27.0321 101.478 27.3114L102.294 25.4855C101.812 25.2699 101.342 24.9925 100.883 24.65L99.6864 26.2524ZM101.482 27.3131C102.201 27.6309 103.024 27.7695 103.918 27.7695V25.7695C103.223 25.7695 102.691 25.6608 102.29 25.4838L101.482 27.3131ZM103.918 27.7695C104.598 27.7695 105.237 27.6683 105.801 27.4227L105.003 25.589C104.759 25.695 104.409 25.7695 103.918 25.7695V27.7695ZM105.801 27.4227C106.351 27.1832 106.818 26.8274 107.173 26.3487L105.565 25.1591C105.437 25.3315 105.26 25.477 105.003 25.589L105.801 27.4227ZM107.171 26.3514C107.563 25.8243 107.74 25.207 107.74 24.5527H105.74C105.74 24.8359 105.669 25.0195 105.567 25.1564L107.171 26.3514ZM107.74 24.5527C107.74 24.1105 107.672 23.6809 107.523 23.2735L105.644 23.957C105.704 24.1225 105.74 24.3179 105.74 24.5527H107.74ZM107.532 23.299C107.382 22.8468 107.127 22.4505 106.767 22.133L105.443 23.6327C105.526 23.7058 105.59 23.7978 105.635 23.9315L107.532 23.299ZM106.767 22.133C106.48 21.8803 106.168 21.6709 105.829 21.5152L104.994 23.3325C105.137 23.3981 105.287 23.4947 105.443 23.6327L106.767 22.133ZM105.829 21.515C105.369 21.3039 104.721 21.0767 103.915 20.8321L103.334 22.746C104.116 22.9832 104.66 23.1792 104.995 23.3327L105.829 21.515ZM103.917 20.8328C103.164 20.6026 102.521 20.3586 101.982 20.1037L101.127 21.912C101.773 22.217 102.509 22.4938 103.332 22.7454L103.917 20.8328ZM101.985 20.1055C101.494 19.8707 101.142 19.6064 100.897 19.3293L99.3993 20.655C99.8572 21.1722 100.443 21.585 101.123 21.9101L101.985 20.1055ZM100.903 19.3363C100.634 19.0271 100.487 18.748 100.417 18.5007L98.492 19.0422C98.6569 19.6283 98.9718 20.163 99.3932 20.6481L100.903 19.3363ZM100.422 18.5185C100.337 18.1946 100.289 17.8003 100.289 17.3262H98.2887C98.2887 17.9328 98.3506 18.502 98.4872 19.0245L100.422 18.5185ZM100.289 17.3262C100.289 16.7088 100.463 16.2217 100.791 15.8143L99.2321 14.5607C98.5963 15.3512 98.2887 16.2898 98.2887 17.3262H100.289ZM100.791 15.8143C101.15 15.3669 101.566 15.0944 102.049 14.959L101.509 13.0332C100.599 13.2884 99.8358 13.8102 99.2321 14.5607L100.791 15.8143ZM102.047 14.9596C102.663 14.7883 103.286 14.7031 103.918 14.7031V12.7031C103.104 12.7031 102.301 12.8133 101.511 13.0326L102.047 14.9596ZM103.918 14.7031C104.661 14.7031 105.264 14.8001 105.745 14.9689L106.407 13.0818C105.664 12.821 104.828 12.7031 103.918 12.7031V14.7031ZM105.745 14.9689C106.275 15.1553 106.736 15.3933 107.134 15.6782L108.299 14.0522C107.733 13.6471 107.1 13.3251 106.407 13.0818L105.745 14.9689ZM107.137 15.68C107.221 15.7404 107.126 15.7028 107.073 15.5304C107.044 15.4351 107.039 15.331 107.058 15.2331C107.076 15.1411 107.111 15.0837 107.125 15.063L108.777 16.1909C108.998 15.8664 109.133 15.4234 108.985 14.9422C108.854 14.516 108.55 14.231 108.296 14.0504L107.137 15.68ZM107.131 15.0542L106.633 15.7671L108.272 16.9126L108.771 16.1997L107.131 15.0542ZM106.632 15.7681C106.697 15.6753 106.805 15.576 106.956 15.5181C107.1 15.4633 107.218 15.4699 107.274 15.4787C107.327 15.4868 107.341 15.4986 107.308 15.483C107.279 15.4686 107.226 15.439 107.148 15.3845L106 17.0218C106.258 17.2033 106.592 17.3966 106.967 17.4549C107.17 17.4864 107.417 17.4833 107.671 17.3862C107.933 17.286 108.134 17.1118 108.273 16.9116L106.632 15.7681ZM107.151 15.3862C106.745 15.0999 106.27 14.8489 105.74 14.6265L104.967 16.4712C105.399 16.6524 105.739 16.8376 105.997 17.0201L107.151 15.3862ZM105.755 14.633C105.166 14.3751 104.558 14.2363 103.937 14.2363V16.2363C104.254 16.2363 104.589 16.3059 104.952 16.4647L105.755 14.633ZM103.937 14.2363C103.267 14.2363 102.645 14.3153 102.104 14.5105L102.782 16.3919C103.035 16.3006 103.409 16.2363 103.937 16.2363V14.2363ZM102.117 14.5056C101.527 14.7089 101.036 15.0717 100.681 15.5885L102.33 16.7201C102.431 16.5729 102.565 16.4668 102.768 16.3967L102.117 14.5056ZM100.681 15.5885C100.329 16.101 100.164 16.6861 100.164 17.3066H102.164C102.164 17.0548 102.226 16.8716 102.33 16.7201L100.681 15.5885ZM100.164 17.3066C100.164 17.6432 100.196 17.9707 100.266 18.2853L102.218 17.8514C102.184 17.6973 102.164 17.517 102.164 17.3066H100.164ZM100.267 18.2912C100.368 18.7343 100.609 19.1159 100.896 19.4371L102.388 18.1059C102.245 17.9453 102.22 17.8581 102.217 17.8455L100.267 18.2912ZM100.896 19.4371C101.212 19.7913 101.595 20.0622 102.032 20.2483L102.815 18.408C102.64 18.3336 102.502 18.2334 102.388 18.1059L100.896 19.4371ZM102.03 20.2473C102.502 20.45 103.189 20.6725 104.058 20.916L104.598 18.9902C103.748 18.752 103.165 18.5578 102.817 18.409L102.03 20.2473ZM104.066 20.9184C104.875 21.1372 105.557 21.4016 106.121 21.7039L107.065 19.9407C106.341 19.5528 105.512 19.2378 104.589 18.9879L104.066 20.9184ZM106.123 21.7049C106.656 21.9887 106.942 22.2389 107.079 22.4234L108.686 21.2329C108.302 20.7143 107.728 20.2938 107.063 19.9396L106.123 21.7049ZM107.091 22.44C107.293 22.7002 107.446 22.9826 107.554 23.2906L109.442 22.6313C109.263 22.119 109.006 21.6461 108.673 21.2163L107.091 22.44ZM107.56 23.3087C107.662 23.5831 107.722 23.9182 107.722 24.3281H109.722C109.722 23.7224 109.633 23.1461 109.435 22.6131L107.56 23.3087ZM107.722 24.3281C107.722 25.0745 107.534 25.6203 107.216 26.0333L108.802 27.2519C109.436 26.4279 109.722 25.4307 109.722 24.3281H107.722ZM107.216 26.0333C106.841 26.5214 106.426 26.8261 105.973 26.9938L106.667 28.8695C107.516 28.5554 108.227 28.0007 108.802 27.2519L107.216 26.0333ZM105.973 26.9938C105.469 27.1803 104.779 27.293 103.869 27.293V29.293C104.925 29.293 105.869 29.1647 106.667 28.8695L105.973 26.9938ZM103.869 27.293C102.759 27.293 101.904 27.163 101.272 26.9398L100.606 28.8258C101.523 29.1495 102.622 29.293 103.869 29.293V27.293ZM101.272 26.9398C100.559 26.6882 100.12 26.4312 99.8759 26.2076L98.5256 27.683C99.0495 28.1625 99.7698 28.5306 100.606 28.8258L101.272 26.9398ZM117.525 15.6758V14.6758H116.525V15.6758H117.525ZM115.65 15.6758H116.65V14.6758H115.65V15.6758ZM111.421 14.6758C111.353 14.6758 111.488 14.6578 111.652 14.792C111.74 14.8638 111.805 14.9558 111.844 15.0513C111.88 15.1407 111.884 15.2096 111.884 15.2363H109.884C109.884 15.5958 110.004 16.0278 110.385 16.3399C110.728 16.6205 111.132 16.6758 111.421 16.6758V14.6758ZM111.884 15.2363V14.4355H109.884V15.2363H111.884ZM111.884 14.4355C111.884 14.4622 111.88 14.5312 111.844 14.6206C111.805 14.7161 111.74 14.808 111.652 14.8799C111.488 15.0141 111.353 14.9961 111.421 14.9961V12.9961C111.132 12.9961 110.728 13.0513 110.385 13.332C110.004 13.6441 109.884 14.076 109.884 14.4355H111.884ZM111.421 14.9961H121.754V12.9961H111.421V14.9961ZM121.754 14.9961C121.822 14.9961 121.687 15.0141 121.523 14.8799C121.435 14.808 121.37 14.7161 121.331 14.6206C121.295 14.5312 121.291 14.4622 121.291 14.4355H123.291C123.291 14.076 123.171 13.6441 122.79 13.332C122.447 13.0513 122.043 12.9961 121.754 12.9961V14.9961ZM121.291 14.4355V15.2363H123.291V14.4355H121.291ZM121.291 15.2363C121.291 15.2096 121.295 15.1407 121.331 15.0513C121.37 14.9558 121.435 14.8638 121.523 14.792C121.687 14.6578 121.822 14.6758 121.754 14.6758V16.6758C122.043 16.6758 122.447 16.6205 122.79 16.3399C123.171 16.0278 123.291 15.5958 123.291 15.2363H121.291ZM121.754 14.6758H117.525V16.6758H121.754V14.6758ZM116.525 15.6758V27.4629H118.525V15.6758H116.525ZM116.525 27.4629C116.525 27.5101 116.512 27.3589 116.663 27.193C116.83 27.0091 117.019 27 117.037 27V29C117.379 29 117.813 28.9014 118.143 28.5384C118.456 28.1935 118.525 27.7737 118.525 27.4629H116.525ZM117.037 27H116.138V29H117.037V27ZM116.138 27C116.156 27 116.345 27.0091 116.512 27.193C116.663 27.3589 116.65 27.5101 116.65 27.4629H114.65C114.65 27.7737 114.719 28.1935 115.032 28.5384C115.362 28.9014 115.796 29 116.138 29V27ZM116.65 27.4629V15.6758H114.65V27.4629H116.65ZM115.65 14.6758H111.421V16.6758H115.65V14.6758ZM127.177 15.5977V14.5977H126.177V15.5977H127.177ZM127.177 19.9336H126.177V20.9336H127.177V19.9336ZM127.177 21.5352V20.5352H126.177V21.5352H127.177ZM127.177 26.3984H126.177V27.3984H127.177V26.3984ZM125.791 27C125.808 27 125.997 27.0091 126.164 27.193C126.315 27.3589 126.302 27.5101 126.302 27.4629H124.302C124.302 27.7737 124.371 28.1935 124.684 28.5384C125.014 28.9014 125.448 29 125.791 29V27ZM126.302 27.4629V14.5332H124.302V27.4629H126.302ZM126.302 14.5332C126.302 14.486 126.315 14.6372 126.164 14.803C125.997 14.987 125.808 14.9961 125.791 14.9961V12.9961C125.448 12.9961 125.014 13.0947 124.684 13.4577C124.371 13.8026 124.302 14.2224 124.302 14.5332H126.302ZM125.791 14.9961H134.336V12.9961H125.791V14.9961ZM134.336 14.9961C134.404 14.9961 134.269 15.0141 134.105 14.8799C134.017 14.808 133.952 14.7161 133.913 14.6206C133.877 14.5312 133.873 14.4622 133.873 14.4355H135.873C135.873 14.076 135.753 13.6441 135.372 13.332C135.029 13.0513 134.625 12.9961 134.336 12.9961V14.9961ZM133.873 14.4355V15.1582H135.873V14.4355H133.873ZM133.873 15.1582C133.873 15.1315 133.877 15.0626 133.913 14.9732C133.952 14.8776 134.017 14.7857 134.105 14.7138C134.269 14.5797 134.404 14.5977 134.336 14.5977V16.5977C134.625 16.5977 135.029 16.5424 135.372 16.2618C135.753 15.9497 135.873 15.5177 135.873 15.1582H133.873ZM134.336 14.5977H127.177V16.5977H134.336V14.5977ZM126.177 15.5977V19.9336H128.177V15.5977H126.177ZM127.177 20.9336H133.75V18.9336H127.177V20.9336ZM133.75 20.9336C133.818 20.9336 133.683 20.9516 133.519 20.8174C133.431 20.7455 133.366 20.6536 133.327 20.5581C133.291 20.4687 133.287 20.3997 133.287 20.373H135.287C135.287 20.0135 135.167 19.5816 134.786 19.2695C134.443 18.9888 134.039 18.9336 133.75 18.9336V20.9336ZM133.287 20.373V21.0957H135.287V20.373H133.287ZM133.287 21.0957C133.287 21.069 133.291 21.0001 133.327 20.9107C133.366 20.8151 133.431 20.7232 133.519 20.6513C133.683 20.5172 133.818 20.5352 133.75 20.5352V22.5352C134.039 22.5352 134.443 22.4799 134.786 22.1993C135.167 21.8872 135.287 21.4552 135.287 21.0957H133.287ZM133.75 20.5352H127.177V22.5352H133.75V20.5352ZM126.177 21.5352V26.3984H128.177V21.5352H126.177ZM127.177 27.3984H134.629V25.3984H127.177V27.3984ZM134.629 27.3984C134.697 27.3984 134.562 27.4164 134.398 27.2823C134.31 27.2104 134.245 27.1185 134.206 27.0229C134.17 26.9335 134.166 26.8646 134.166 26.8379H136.166C136.166 26.4784 136.046 26.0464 135.665 25.7343C135.322 25.4537 134.918 25.3984 134.629 25.3984V27.3984ZM134.166 26.8379V27.5605H136.166V26.8379H134.166ZM134.166 27.5605C134.166 27.5339 134.17 27.4649 134.206 27.3755C134.245 27.28 134.31 27.1881 134.398 27.1162C134.562 26.982 134.697 27 134.629 27V29C134.918 29 135.322 28.9448 135.665 28.6641C136.046 28.352 136.166 27.9201 136.166 27.5605H134.166ZM134.629 27H125.791V29H134.629V27ZM141.83 14.582L140.876 14.8839L140.877 14.8858L141.83 14.582ZM144.623 23.3418L143.67 23.6456L144.623 23.3418ZM145.13 24.9727L144.166 25.2386L144.169 25.2474L145.13 24.9727ZM145.355 25.9883L144.374 26.1819L144.533 26.9883H145.355V25.9883ZM145.414 25.9883V26.9883H146.236L146.395 26.1819L145.414 25.9883ZM145.638 24.9727L146.6 25.2474L146.602 25.2386L145.638 24.9727ZM148.939 14.582L149.892 14.8858L149.892 14.8839L148.939 14.582ZM150.209 16.4375L151.207 16.4874L151.26 15.4375H150.209V16.4375ZM150.17 16.4375V15.4375H149.446L149.219 16.1253L150.17 16.4375ZM146.566 27.4043L145.616 27.0921L145.616 27.0927L146.566 27.4043ZM144.203 27.4043L145.153 27.0927L145.153 27.0921L144.203 27.4043ZM140.599 16.4375L141.549 16.1253L141.323 15.4375H140.599V16.4375ZM140.56 16.4375V15.4375H139.509L139.561 16.4874L140.56 16.4375ZM139.193 27C139.21 27 139.399 27.0091 139.567 27.193C139.717 27.3589 139.705 27.5101 139.705 27.4629H137.705C137.705 27.7737 137.773 28.1935 138.087 28.5384C138.417 28.9014 138.85 29 139.193 29V27ZM139.705 27.4629V14.5332H137.705V27.4629H139.705ZM139.705 14.5332C139.705 14.486 139.717 14.6372 139.567 14.803C139.399 14.987 139.21 14.9961 139.193 14.9961V12.9961C138.85 12.9961 138.417 13.0947 138.087 13.4577C137.773 13.8026 137.705 14.2224 137.705 14.5332H139.705ZM139.193 14.9961H141.273V12.9961H139.193V14.9961ZM141.273 14.9961C141.199 14.9961 141.116 14.9806 141.036 14.9443C140.957 14.9087 140.904 14.8638 140.873 14.8313C140.821 14.7767 140.839 14.7647 140.876 14.8839L142.783 14.2801C142.627 13.7887 142.215 12.9961 141.273 12.9961V14.9961ZM140.877 14.8858L143.67 23.6456L145.575 23.038L142.782 14.2783L140.877 14.8858ZM143.67 23.6456C143.959 24.5533 144.121 25.0737 144.166 25.2386L146.094 24.7067C146.036 24.494 145.859 23.9271 145.575 23.038L143.67 23.6456ZM144.169 25.2474C144.208 25.3841 144.276 25.684 144.374 26.1819L146.336 25.7946C146.239 25.303 146.157 24.9258 146.092 24.6979L144.169 25.2474ZM145.355 26.9883H145.414V24.9883H145.355V26.9883ZM146.395 26.1819C146.493 25.684 146.561 25.3841 146.6 25.2474L144.677 24.6979C144.612 24.9258 144.53 25.303 144.433 25.7946L146.395 26.1819ZM146.602 25.2386C146.648 25.0737 146.809 24.5533 147.099 23.6456L145.193 23.038C144.91 23.9271 144.733 24.494 144.674 24.7067L146.602 25.2386ZM147.099 23.6456L149.892 14.8858L147.986 14.2783L145.193 23.038L147.099 23.6456ZM149.892 14.8839C149.93 14.7647 149.948 14.7767 149.896 14.8313C149.865 14.8638 149.812 14.9087 149.733 14.9443C149.652 14.9806 149.57 14.9961 149.496 14.9961V12.9961C148.554 12.9961 148.141 13.7887 147.986 14.2801L149.892 14.8839ZM149.496 14.9961H151.576V12.9961H149.496V14.9961ZM151.576 14.9961C151.559 14.9961 151.369 14.987 151.202 14.803C151.051 14.6372 151.064 14.486 151.064 14.5332H153.064C153.064 14.2224 152.995 13.8026 152.682 13.4577C152.352 13.0947 151.919 12.9961 151.576 12.9961V14.9961ZM151.064 14.5332V27.4629H153.064V14.5332H151.064ZM151.064 27.4629C151.064 27.5101 151.051 27.3589 151.202 27.193C151.369 27.0091 151.559 27 151.576 27V29C151.919 29 152.352 28.9014 152.682 28.5384C152.995 28.1935 153.064 27.7737 153.064 27.4629H151.064ZM151.576 27H150.677V29H151.576V27ZM150.677 27C150.695 27 150.884 27.0091 151.051 27.193C151.202 27.3589 151.189 27.5101 151.189 27.4629H149.189C149.189 27.7737 149.258 28.1935 149.571 28.5384C149.901 28.9014 150.335 29 150.677 29V27ZM151.189 27.4629V17.2188H149.189V27.4629H151.189ZM151.189 17.2188C151.189 16.975 151.195 16.7312 151.207 16.4874L149.21 16.3876C149.196 16.6646 149.189 16.9417 149.189 17.2188H151.189ZM150.209 15.4375H150.17V17.4375H150.209V15.4375ZM149.219 16.1253L145.616 27.0921L147.516 27.7165L151.12 16.7497L149.219 16.1253ZM145.616 27.0927C145.582 27.1947 145.569 27.172 145.628 27.1167C145.662 27.086 145.709 27.0533 145.77 27.0299C145.83 27.0067 145.884 27 145.921 27V29C146.316 29 146.689 28.8599 146.986 28.5855C147.261 28.3316 147.419 28.011 147.516 27.7158L145.616 27.0927ZM145.921 27H144.847V29H145.921V27ZM144.847 27C144.885 27 144.939 27.0067 144.999 27.0299C145.059 27.0533 145.107 27.086 145.14 27.1167C145.2 27.172 145.186 27.1947 145.153 27.0927L143.252 27.7158C143.349 28.011 143.508 28.3316 143.783 28.5855C144.08 28.8599 144.453 29 144.847 29V27ZM145.153 27.0921L141.549 16.1253L139.649 16.7497L143.253 27.7165L145.153 27.0921ZM140.599 15.4375H140.56V17.4375H140.599V15.4375ZM139.561 16.4874C139.574 16.7312 139.58 16.975 139.58 17.2188H141.58C141.58 16.9417 141.573 16.6646 141.559 16.3876L139.561 16.4874ZM139.58 17.2188V27.4629H141.58V17.2188H139.58ZM139.58 27.4629C139.58 27.5101 139.567 27.3589 139.718 27.193C139.885 27.0091 140.074 27 140.091 27V29C140.434 29 140.868 28.9014 141.198 28.5384C141.511 28.1935 141.58 27.7737 141.58 27.4629H139.58ZM140.091 27H139.193V29H140.091V27Z" fill="white" mask="url(#path-1-outside-1_203_12)"/>
</g>
<g filter="url(#filter1_d_203_12)">
<path d="M10 8H188L185.756 10H10V8Z" fill="black"/>
<path d="M10 7.5H9.5V8V10V10.5H10H185.756H185.947L186.089 10.3732L188.333 8.37324L189.312 7.5H188H10Z" stroke="white"/>
</g>
<g filter="url(#filter2_d_203_12)">
<path d="M156 17H180L178 19H156V17Z" fill="black"/>
<path d="M156 17H180L178 19H156V17Z" fill="black"/>
<path d="M156 17H180L178 19H156V17Z" stroke="white"/>
</g>
<g filter="url(#filter3_d_203_12)">
<path d="M156 25H173L171 27H156V25Z" fill="black"/>
<path d="M156 25H173L171 27H156V25Z" fill="black"/>
<path d="M156 25H173L171 27H156V25Z" stroke="white"/>
</g>
<defs>
<filter id="filter0_d_203_12" x="1.32422" y="5.39453" width="154.74" height="23.8984" filterUnits="userSpaceOnUse" color-interpolation-filters="sRGB">
<feFlood flood-opacity="0" result="BackgroundImageFix"/>
<feColorMatrix in="SourceAlpha" type="matrix" values="0 0 0 0 0 0 0 0 0 0 0 0 0 0 0 0 0 0 127 0" result="hardAlpha"/>
<feOffset dx="2" dy="-1"/>
<feGaussianBlur stdDeviation="0.5"/>
<feComposite in2="hardAlpha" operator="out"/>
<feColorMatrix type="matrix" values="0 0 0 0 0 0 0 0 0 0 0 0 0 0 0 0 0 0 0.5 0"/>
<feBlend mode="normal" in2="BackgroundImageFix" result="effect1_dropShadow_203_12"/>
<feBlend mode="normal" in="SourceGraphic" in2="effect1_dropShadow_203_12" result="shape"/>
</filter>
<filter id="filter1_d_203_12" x="9" y="5" width="184.625" height="6" filterUnits="userSpaceOnUse" color-interpolation-filters="sRGB">
<feFlood flood-opacity="0" result="BackgroundImageFix"/>
<feColorMatrix in="SourceAlpha" type="matrix" values="0 0 0 0 0 0 0 0 0 0 0 0 0 0 0 0 0 0 127 0" result="hardAlpha"/>
<feOffset dx="2" dy="-1"/>
<feGaussianBlur stdDeviation="0.5"/>
<feComposite in2="hardAlpha" operator="out"/>
<feColorMatrix type="matrix" values="0 0 0 0 0 0 0 0 0 0 0 0 0 0 0 0 0 0 0.5 0"/>
<feBlend mode="normal" in2="BackgroundImageFix" result="effect1_dropShadow_203_12"/>
<feBlend mode="normal" in="SourceGraphic" in2="effect1_dropShadow_203_12" result="shape"/>
</filter>
<filter id="filter2_d_203_12" x="155.5" y="14.5" width="28.707" height="5" filterUnits="userSpaceOnUse" color-interpolation-filters="sRGB">
<feFlood flood-opacity="0" result="BackgroundImageFix"/>
<feColorMatrix in="SourceAlpha" type="matrix" values="0 0 0 0 0 0 0 0 0 0 0 0 0 0 0 0 0 0 127 0" result="hardAlpha"/>
<feOffset dx="2" dy="-1"/>
<feGaussianBlur stdDeviation="0.5"/>
<feComposite in2="hardAlpha" operator="out"/>
<feColorMatrix type="matrix" values="0 0 0 0 0 0 0 0 0 0 0 0 0 0 0 0 0 0 0.5 0"/>
<feBlend mode="normal" in2="BackgroundImageFix" result="effect1_dropShadow_203_12"/>
<feBlend mode="normal" in="SourceGraphic" in2="effect1_dropShadow_203_12" result="shape"/>
</filter>
<filter id="filter3_d_203_12" x="155.5" y="22.5" width="21.707" height="5" filterUnits="userSpaceOnUse" color-interpolation-filters="sRGB">
<feFlood flood-opacity="0" result="BackgroundImageFix"/>
<feColorMatrix in="SourceAlpha" type="matrix" values="0 0 0 0 0 0 0 0 0 0 0 0 0 0 0 0 0 0 127 0" result="hardAlpha"/>
<feOffset dx="2" dy="-1"/>
<feGaussianBlur stdDeviation="0.5"/>
<feComposite in2="hardAlpha" operator="out"/>
<feColorMatrix type="matrix" values="0 0 0 0 0 0 0 0 0 0 0 0 0 0 0 0 0 0 0.5 0"/>
<feBlend mode="normal" in2="BackgroundImageFix" result="effect1_dropShadow_203_12"/>
<feBlend mode="normal" in="SourceGraphic" in2="effect1_dropShadow_203_12" result="shape"/>
</filter>
</defs>
</svg>
